<svg xmlns="http://www.w3.org/2000/svg" data-name="Layer 1" fill="#ffffff" viewBox="0 0 32 40" x="0px" y="0px"><title>Travelling</title><path d="M26.06,6.07H24.5V4.51a0.5,0.5,0,0,0-1,0V6.07H8.5V4.51a0.5,0.5,0,0,0-1,0V6.07H5.94A4.45,4.45,0,0,0,1.5,10.52v13A4.45,4.45,0,0,0,5.94,28H26.06a4.45,4.45,0,0,0,4.44-4.44v-13A4.45,4.45,0,0,0,26.06,6.07Zm0,20.92H5.94A3.45,3.45,0,0,1,2.5,23.55V12.07h27V23.55A3.45,3.45,0,0,1,26.06,27ZM29.5,11.07H2.5V10.52A3.45,3.45,0,0,1,5.94,7.07H7.5v2a0.5,0.5,0,0,0,1,0v-2h15v2a0.5,0.5,0,0,0,1,0v-2h1.56a3.45,3.45,0,0,1,3.44,3.44v0.56Z"/><path d="M25.75,16.51H6.31a0.5,0.5,0,0,0,0,1H25.75A0.5,0.5,0,0,0,25.75,16.51Z"/><path d="M25.75,21.2H6.31a0.5,0.5,0,0,0,0,1H25.75A0.5,0.5,0,0,0,25.75,21.2Z"/></svg>