<svg xmlns="http://www.w3.org/2000/svg" xmlns:xlink="http://www.w3.org/1999/xlink" version="1.1" x="0px" y="0px" viewBox="0 0 100 125" enable-background="new 0 0 100 100" xml:space="preserve"><path fill="#219291" d="M77.252,48.862c-0.201-1.944-1.83-3.471-3.826-3.471h-1.159v-9.632c0-12.278-9.989-22.267-22.267-22.267  c-12.278,0-22.267,9.989-22.267,22.267v5.008c0,1.081,0.876,1.957,1.957,1.957c1.081,0,1.957-0.876,1.957-1.957v-5.008  c0-10.12,8.233-18.353,18.353-18.353c10.12,0,18.353,8.233,18.353,18.353v9.632H26.574c-1.997,0-3.625,1.527-3.827,3.471  c-0.026,0.128-0.04,0.26-0.04,0.395v25.49c0,6.484,5.276,11.76,11.76,11.76h31.065c6.484,0,11.76-5.276,11.76-11.76v-25.49  C77.292,49.122,77.279,48.99,77.252,48.862z M65.532,82.594H34.468c-4.327,0-7.847-3.52-7.847-7.847V49.304h46.758v25.443  C73.379,79.074,69.859,82.594,65.532,82.594z M50,57.798c-5.021,0-9.106,4.085-9.106,9.106c0,5.021,4.085,9.106,9.106,9.106  c5.021,0,9.106-4.085,9.106-9.106C59.106,61.883,55.021,57.798,50,57.798z M50,72.097c-2.863,0-5.193-2.33-5.193-5.193  s2.33-5.193,5.193-5.193s5.193,2.33,5.193,5.193S52.863,72.097,50,72.097z"/></svg>